<svg xmlns="http://www.w3.org/2000/svg" xmlns:xlink="http://www.w3.org/1999/xlink" width="2000" zoomAndPan="magnify" viewBox="0 0 1500 1499.999933" height="2000" preserveAspectRatio="xMidYMid meet" version="1.0"><defs><filter x="0%" y="0%" width="100%" height="100%" id="c3f1fa62a2"><feColorMatrix values="0 0 0 0 1 0 0 0 0 1 0 0 0 0 1 0 0 0 1 0" color-interpolation-filters="sRGB"/></filter><clipPath id="d5094a6eba"><path d="M 380 154 L 1264 154 L 1264 1075 L 380 1075 Z M 380 154 " clip-rule="nonzero"/></clipPath><clipPath id="7c4598f2ab"><path d="M 227.421875 386.636719 L 947.066406 50.566406 L 1336.769531 885.058594 L 617.121094 1221.125 Z M 227.421875 386.636719 " clip-rule="nonzero"/></clipPath><clipPath id="f917438ab2"><path d="M 227.421875 386.636719 L 947.066406 50.566406 L 1336.769531 885.058594 L 617.121094 1221.125 Z M 227.421875 386.636719 " clip-rule="nonzero"/></clipPath><clipPath id="695435f0f5"><path d="M 344 322 L 1302 322 L 1302 1222 L 344 1222 Z M 344 322 " clip-rule="nonzero"/></clipPath><clipPath id="d1517a18d0"><path d="M 227.421875 386.636719 L 947.066406 50.566406 L 1336.769531 885.058594 L 617.121094 1221.125 Z M 227.421875 386.636719 " clip-rule="nonzero"/></clipPath><clipPath id="68e6d741dc"><path d="M 227.421875 386.636719 L 947.066406 50.566406 L 1336.769531 885.058594 L 617.121094 1221.125 Z M 227.421875 386.636719 " clip-rule="nonzero"/></clipPath><mask id="85bc3fbe34"><g filter="url(#c3f1fa62a2)"><rect x="-150" width="1800" fill="#000000" y="-149.999993" height="1799.99992" fill-opacity="0.1"/></g></mask><clipPath id="1a17254614"><path d="M 37 305 L 905 305 L 905 753 L 37 753 Z M 37 305 " clip-rule="nonzero"/></clipPath><clipPath id="e6ec62a8f8"><path d="M -116.578125 64.636719 L 603.066406 -271.433594 L 992.769531 563.058594 L 273.121094 899.125 Z M -116.578125 64.636719 " clip-rule="nonzero"/></clipPath><clipPath id="ba142a0537"><path d="M -116.578125 64.636719 L 603.066406 -271.433594 L 992.769531 563.058594 L 273.121094 899.125 Z M -116.578125 64.636719 " clip-rule="nonzero"/></clipPath><clipPath id="7a895c1a90"><rect x="0" width="958" y="0" height="900"/></clipPath><clipPath id="ccd103b97f"><path d="M 346 822 L 770 822 L 770 1204 L 346 1204 Z M 346 822 " clip-rule="nonzero"/></clipPath><clipPath id="47151f844f"><path d="M 306.695312 829.453125 L 732.910156 780.636719 L 781.726562 1206.847656 L 355.515625 1255.667969 Z M 306.695312 829.453125 " clip-rule="nonzero"/></clipPath><clipPath id="b613acb8be"><path d="M 306.695312 829.453125 L 732.910156 780.636719 L 781.726562 1206.847656 L 355.515625 1255.667969 Z M 306.695312 829.453125 " clip-rule="nonzero"/></clipPath><mask id="67b33cefc6"><g filter="url(#c3f1fa62a2)"><rect x="-150" width="1800" fill="#000000" y="-149.999993" height="1799.99992" fill-opacity="0.65"/></g></mask><clipPath id="c2dcb02ffe"><path d="M 18 45 L 315 45 L 315 295 L 18 295 Z M 18 45 " clip-rule="nonzero"/></clipPath><clipPath id="8d346d64da"><path d="M -15.171875 55.261719 L 271.90625 -0.785156 L 327.957031 286.292969 L 40.878906 342.34375 Z M -15.171875 55.261719 " clip-rule="nonzero"/></clipPath><clipPath id="221af9d6db"><path d="M -15.171875 55.261719 L 271.90625 -0.785156 L 327.957031 286.292969 L 40.878906 342.34375 Z M -15.171875 55.261719 " clip-rule="nonzero"/></clipPath><clipPath id="e8b4b6d610"><rect x="0" width="324" y="0" height="324"/></clipPath></defs><g clip-path="url(#d5094a6eba)"><g clip-path="url(#7c4598f2ab)"><g clip-path="url(#f917438ab2)"><path fill="#ff8811" d="M 1263.941406 730.675781 C 1260.265625 750.09375 1254.972656 769.035156 1248.230469 787.5 C 1200.210938 920.023438 1079.269531 1022.957031 946.289062 1058.875 C 843.796875 1086.539062 743.898438 1078.011719 646.585938 1033.261719 C 498.941406 965.277344 405.664062 827.945312 384.445312 666.703125 C 382.761719 653.785156 381.617188 640.878906 381.09375 627.96875 C 371.292969 394.335938 549.160156 175.109375 787.714844 154.328125 C 789.945312 154.105469 791.453125 156.71875 790.089844 158.535156 C 744.304688 220.574219 715.695312 299.046875 714.824219 377.457031 C 712.324219 607.601562 894.464844 788.382812 1125.488281 769.03125 C 1172.972656 765.054688 1217.964844 751.476562 1260.519531 728.238281 C 1262.277344 727.269531 1264.277344 728.765625 1263.953125 730.699219 Z M 1263.941406 730.675781 " fill-opacity="1" fill-rule="nonzero"/></g></g></g><g clip-path="url(#695435f0f5)"><g clip-path="url(#d1517a18d0)"><g clip-path="url(#68e6d741dc)"><g mask="url(#85bc3fbe34)"><g transform="matrix(1, 0, 0, 1, 344, 322)"><g clip-path="url(#7a895c1a90)"><g clip-path="url(#1a17254614)"><g clip-path="url(#e6ec62a8f8)"><g clip-path="url(#ba142a0537)"><path fill="#fff8f0" d="M 904.222656 465.480469 C 856.203125 598.003906 735.261719 700.9375 602.28125 736.855469 C 499.785156 764.519531 399.886719 755.988281 302.574219 711.242188 C 154.941406 643.277344 61.664062 505.945312 40.445312 344.703125 C 38.761719 331.785156 37.617188 318.878906 37.09375 305.96875 C 51.078125 313.769531 65.628906 322.074219 80.59375 330.789062 C 500.578125 575.449219 756.089844 547.566406 904.210938 465.507812 Z M 904.222656 465.480469 " fill-opacity="1" fill-rule="nonzero"/></g></g></g></g></g></g></g></g></g><g clip-path="url(#ccd103b97f)"><g clip-path="url(#47151f844f)"><g clip-path="url(#b613acb8be)"><path fill="#7bcec5" d="M 398.351562 829.195312 C 398.402344 822.648438 389.957031 819.917969 386.378906 825.402344 C 318.15625 929.933594 339.554688 1071.351562 439.226562 1150.535156 C 538.898438 1229.722656 681.492188 1218.589844 767.890625 1128.5 C 772.421875 1123.773438 767.851562 1116.164062 761.488281 1117.695312 C 688.992188 1135.132812 592.230469 1115.828125 515.335938 1054.738281 C 438.4375 993.648438 397.757812 903.757812 398.351562 829.195312 Z M 398.351562 829.195312 " fill-opacity="1" fill-rule="evenodd"/></g></g></g><g mask="url(#67b33cefc6)"><g transform="matrix(1, 0, 0, 1, 303, 988)"><g clip-path="url(#e8b4b6d610)"><g clip-path="url(#c2dcb02ffe)"><g clip-path="url(#8d346d64da)"><g clip-path="url(#221af9d6db)"><path fill="#7bcec5" d="M 47.011719 50.179688 C 46.695312 45.734375 40.816406 44.332031 38.683594 48.246094 C -2.015625 122.835938 20.082031 217.65625 91.964844 266.054688 C 163.84375 314.449219 260.011719 299.257812 313.816406 233.492188 C 316.640625 230.042969 313.128906 225.125 308.894531 226.503906 C 260.628906 242.222656 193.933594 234.304688 138.480469 196.96875 C 83.023438 159.628906 50.601562 100.808594 47.011719 50.179688 Z M 47.011719 50.179688 " fill-opacity="1" fill-rule="evenodd"/></g></g></g></g></g></g></svg>